<?xml version="1.0" encoding="UTF-8"?>
<svg width="32px" height="33px" viewBox="0 0 32 33" version="1.1" xmlns="http://www.w3.org/2000/svg" xmlns:xlink="http://www.w3.org/1999/xlink">
    <!-- Generator: Sketch 55.2 (78181) - https://sketchapp.com -->
    <title>social_linkedin</title>
    <desc>Created with Sketch.</desc>
    <defs>
        <polygon id="path-1" points="0 0 32 0 32 33 0 33"></polygon>
    </defs>
    <g id="Symbols" stroke="none" stroke-width="1" fill="none" fill-rule="evenodd">
        <g id="navigation" transform="translate(-134.000000, -418.000000)">
            <g id="social_linkedin" transform="translate(134.000000, 418.000000)">
                <mask id="mask-2" fill="white">
                    <use xlink:href="#path-1"></use>
                </mask>
                <g id="Clip-10"></g>
                <path d="M27.0631715,27.6283074 L27.0631715,19.0779667 C27.0631715,14.5014427 24.6880717,12.3742403 21.521272,12.3742403 C18.9379336,12.3742403 17.7926208,13.8561913 17.1669225,14.8883909 L17.2091596,14.8883909 L17.2091596,12.7176315 L12.3960955,12.7176315 C12.3960955,12.7176315 12.45896,14.1144944 12.3960955,27.6283074 L17.2091596,27.6283074 L17.2091596,19.2927129 C17.2091596,18.8632206 17.2288047,18.4114433 17.3545337,18.0893241 C17.7091289,17.2080545 18.4998465,16.2842409 19.8337528,16.2842409 C21.5625269,16.2842409 22.2510897,17.6385598 22.2510897,19.6573761 L22.2510897,27.6283074 L27.0631715,27.6283074 Z M4.93781079,27.6283074 L9.74989257,27.6283074 L9.74989257,12.7176315 L4.93781079,12.7176315 L4.93781079,27.6283074 Z M7.37577506,5.54186875 C5.72951071,5.54186875 4.64608018,6.65915649 4.64608018,8.11983547 C4.64608018,9.53898336 5.68727362,10.6988152 7.31291055,10.6988152 L7.33353797,10.6988152 C9.02105716,10.6988152 10.0622506,9.53898336 10.0622506,8.11983547 C10.0426054,6.65915649 9.02105716,5.54186875 7.37577506,5.54186875 L7.37577506,5.54186875 Z M32,26.8118669 C32,30.2275462 29.3125422,33 26.0003683,33 L6.00061391,33 C2.68844005,33 0,30.2275462 0,26.8118669 L0,6.18712014 C0,2.7704279 2.68844005,0 6.00061391,0 L26.0003683,0 C29.3125422,0 32,2.7704279 32,6.18712014 L32,26.8118669 Z" id="Fill-9" fill="#217C8E" mask="url(#mask-2)"></path>
            </g>
        </g>
    </g>
</svg>