<?xml version="1.0" encoding="UTF-8"?>
<svg width="34px" height="34px" viewBox="0 0 34 34" version="1.1" xmlns="http://www.w3.org/2000/svg" xmlns:xlink="http://www.w3.org/1999/xlink">
    <!-- Generator: Sketch 55.2 (78181) - https://sketchapp.com -->
    <title>social_instagram</title>
    <desc>Created with Sketch.</desc>
    <defs>
        <polygon id="path-1" points="0 0 34 0 34 34 0 34"></polygon>
    </defs>
    <g id="Symbols" stroke="none" stroke-width="1" fill="none" fill-rule="evenodd">
        <g id="navigation" transform="translate(-35.000000, -417.000000)">
            <g id="social_instagram" transform="translate(35.000000, 417.000000)">
                <mask id="mask-2" fill="white">
                    <use xlink:href="#path-1"></use>
                </mask>
                <g id="Clip-2"></g>
                <path d="M29.658303,22.4307273 C29.5583636,24.4820606 29.0916364,26.3005455 27.5904848,27.801697 C26.0893333,29.3028485 24.2708485,29.7695758 22.2195152,29.8705455 C20.4504848,29.9694545 18.7,29.954 16.9309697,29.954 C15.164,29.954 13.4114545,29.9694545 11.6444848,29.8705455 C9.59212121,29.7695758 7.77363636,29.3028485 6.27248485,27.801697 C4.77133333,26.3005455 4.30460606,24.4820606 4.20466667,22.4307273 C4.10472727,20.6627273 4.12121212,18.9112121 4.12121212,17.1432121 C4.12121212,15.3741818 4.10472727,13.623697 4.20466667,11.8546667 C4.30460606,9.80333333 4.77133333,7.98484848 6.27248485,6.48369697 C7.77363636,4.98357576 9.59212121,4.51581818 11.6444848,4.41587879 C13.4114545,4.31593939 15.164,4.33345455 16.9309697,4.33345455 C18.7,4.33345455 20.4504848,4.31593939 22.2195152,4.41587879 C24.2708485,4.51581818 26.0893333,4.98357576 27.5904848,6.48369697 C29.0916364,7.98484848 29.5583636,9.80333333 29.658303,11.8546667 C29.7582424,13.623697 29.7417576,15.3741818 29.7417576,17.1432121 C29.7417576,18.9112121 29.7582424,20.6627273 29.658303,22.4307273 M26.7878788,0 L7.21212121,0 C3.2289697,0 0,3.2289697 0,7.21212121 L0,26.7878788 C0,30.7710303 3.2289697,34 7.21212121,34 L26.7878788,34 C30.7710303,34 34,30.7710303 34,26.7878788 L34,7.21212121 C34,3.2289697 30.7710303,0 26.7878788,0 M23.7701212,11.8392121 C22.9190909,11.8392121 22.236,11.1550909 22.236,10.3040606 C22.236,9.4530303 22.9190909,8.76993939 23.7701212,8.76993939 C24.6211515,8.76993939 25.3052727,9.4530303 25.3052727,10.3040606 C25.3052727,11.1550909 24.6211515,11.8392121 23.7701212,11.8392121 M16.9309697,23.7155152 C13.2950303,23.7155152 10.359697,20.7791515 10.359697,17.1432121 C10.359697,13.5072727 13.2950303,10.5709091 16.9309697,10.5709091 C20.5679394,10.5709091 23.5032727,13.5072727 23.5032727,17.1432121 C23.5032727,20.7791515 20.5679394,23.7155152 16.9309697,23.7155152 M26.9228485,9.5869697 C26.6889697,9.00381818 26.4056364,8.57006061 25.9553939,8.11878788 C25.5051515,7.66854545 25.0713939,7.38521212 24.4872121,7.15133333 C22.8026667,6.48369697 18.7999394,6.63515152 16.9309697,6.63515152 C15.0630303,6.63515152 11.060303,6.48369697 9.37472727,7.15133333 C8.79157576,7.38521212 8.35781818,7.66854545 7.90757576,8.11878788 C7.45733333,8.57006061 7.174,9.00381818 6.94012121,9.5869697 C6.27248485,11.2715152 6.42290909,15.2752727 6.42290909,17.1432121 C6.42290909,19.0111515 6.27248485,23.0138788 6.94012121,24.6994545 C7.174,25.2836364 7.45733333,25.7163636 7.90757576,26.1666061 C8.35781818,26.6168485 8.79157576,26.9012121 9.37472727,27.1340606 C11.060303,27.801697 15.0630303,27.6512727 16.9309697,27.6512727 C18.7999394,27.6512727 22.8026667,27.801697 24.4872121,27.1340606 C25.0713939,26.9012121 25.5051515,26.6168485 25.9553939,26.1666061 C26.4056364,25.7163636 26.6889697,25.2836364 26.9228485,24.6994545 C27.5904848,23.0138788 27.4400606,19.0111515 27.4400606,17.1432121 C27.4400606,15.2752727 27.5904848,11.2715152 26.9228485,9.5869697" id="Fill-1" fill="#094357" mask="url(#mask-2)"></path>
            </g>
        </g>
    </g>
</svg>