<?xml version="1.0" encoding="UTF-8"?>
<svg width="35px" height="34px" viewBox="0 0 35 34" version="1.1" xmlns="http://www.w3.org/2000/svg" xmlns:xlink="http://www.w3.org/1999/xlink">
    <!-- Generator: Sketch 55.2 (78181) - https://sketchapp.com -->
    <title>social_behance</title>
    <desc>Created with Sketch.</desc>
    <defs>
        <polygon id="path-1" points="0 0 34 0 34 34 0 34"></polygon>
    </defs>
    <g id="Symbols" stroke="none" stroke-width="1" fill="none" fill-rule="evenodd">
        <g id="navigation" transform="translate(-84.000000, -417.000000)">
            <g id="social_behance" transform="translate(84.500000, 417.000000)">
                <mask id="mask-2" fill="white">
                    <use xlink:href="#path-1"></use>
                </mask>
                <g id="Clip-2"></g>
                <path d="M31.1664927,19.4123208 C31.1664927,15.6939133 28.973786,12.5724546 25.0131377,12.5724546 C21.1839892,12.5724546 18.5487752,15.4726664 18.5487752,19.2578655 C18.5487752,23.1975199 21.0274418,25.8754412 25.0131377,25.8754412 C28.0449383,25.8754412 29.9934311,24.5250008 30.9233225,21.6477485 L27.8685616,21.6477485 C27.5356375,22.7101507 26.1861993,23.2862273 25.1446375,23.2862273 C23.1084781,23.2862273 22.0460433,22.0902422 22.0460433,20.0760613 L31.1445761,20.0760613 C31.1664927,19.8548145 31.1664927,19.6335676 31.1664927,19.4123208 L31.1664927,19.4123208 Z M17.4195469,20.4966389 C17.4195469,18.3050431 16.3790288,16.6895239 14.2552029,16.0696154 C15.8039781,15.3171675 16.622199,14.1879738 16.622199,12.4388717 C16.622199,8.96467049 14.0329056,8.12351515 11.0449383,8.12351515 L2.83350727,8.12351515 L2.83350727,25.543571 L11.2881085,25.543571 C14.4534962,25.543571 17.4195469,24.0386752 17.4195469,20.4966389 L17.4195469,20.4966389 Z M21.3384493,11.0007674 L28.399779,11.0007674 L28.399779,9.2954971 L21.3384493,9.2954971 L21.3384493,11.0007674 Z M34,6.37441297 L34,27.6234998 C34,31.1436201 31.1445761,34 27.6243477,34 L6.37460863,34 C2.85438026,34 0,31.1436201 0,27.6234998 L0,6.37441297 C0,2.85533626 2.85438026,0 6.37460863,0 L27.6243477,0 C31.1445761,0 34,2.85533626 34,6.37441297 L34,6.37441297 Z M10.8456013,17.7748857 L6.66265578,17.7748857 L6.66265578,22.5776113 L10.7568912,22.5776113 C12.3286267,22.5776113 13.5903984,22.0453666 13.5903984,20.2753921 C13.5903984,18.504374 12.5279637,17.7748857 10.8456013,17.7748857 L10.8456013,17.7748857 Z M24.9244275,15.1846281 C23.2639818,15.1846281 22.1566701,16.2240707 22.0460433,17.8844655 L27.668181,17.8844655 C27.5137209,16.2240707 26.6506231,15.1846281 24.9244275,15.1846281 L24.9244275,15.1846281 Z M10.5575542,15.1627122 L6.66265578,15.1627122 L6.66265578,11.0894748 L10.2705507,11.0894748 C11.6429492,11.0894748 12.904721,11.4662206 12.904721,13.0817398 C12.904721,14.563676 11.9299527,15.1627122 10.5575542,15.1627122 L10.5575542,15.1627122 Z" id="Fill-1" fill="#217C8E" mask="url(#mask-2)"></path>
            </g>
        </g>
    </g>
</svg>